<svg width="40" height="40" viewBox="0 0 40 40" fill="none" xmlns="http://www.w3.org/2000/svg">
<rect x="0.5" y="0.5" width="39" height="39" rx="11.5" stroke="#C4C4C4"/>
<path d="M11.8729 25.0194L10.6693 17.8398C10.4873 16.7542 10.3964 16.2115 10.6877 15.8557C10.9791 15.5 11.5146 15.5 12.5856 15.5H27.4144C28.4854 15.5 29.0209 15.5 29.3123 15.8557C29.6036 16.2115 29.5126 16.7542 29.3307 17.8398L28.1271 25.0194C27.7282 27.3991 27.5287 28.5889 26.7143 29.2945C25.9 30 24.726 30 22.3782 30H17.6218C15.274 30 14.1 30 13.2856 29.2945C12.4713 28.5889 12.2718 27.3991 11.8729 25.0194Z" stroke="#121212" stroke-width="1.5"/>
<path d="M25.5 15.5C25.5 12.4624 23.0376 10 20 10C16.9624 10 14.5 12.4624 14.5 15.5" stroke="#121212" stroke-width="1.5"/>
</svg>
