<svg width="270" height="55" viewBox="0 0 270 55" fill="none" xmlns="http://www.w3.org/2000/svg">
<path d="M51.4012 27.4473H28.7087L31.664 22.2755C36.9413 13.0929 46.7571 7.39342 57.4174 7.39342V3.59375L31.4529 3.59375C23.0091 3.59375 15.1987 8.44889 11.5046 16.1538L6.01612 27.5528H28.7087L25.7534 32.7246C20.476 41.9072 10.6602 47.6067 -1.52588e-05 47.6067V51.4064H25.9645C34.4082 51.4064 42.2186 46.5512 45.9128 38.8463L51.4012 27.4473Z" fill="#E27A1E"/>
<path d="M70.4484 34.9837H75.4051C75.764 38.191 78.8816 40.2993 83.143 40.2993C87.225 40.2993 90.1632 38.191 90.1632 35.2977C90.1632 32.7857 88.3913 31.2829 84.1972 30.2512L80.003 29.2419C74.0594 27.8065 71.3007 25.0254 71.3007 20.5172C71.3007 14.9325 76.1677 11.0972 83.0757 11.0972C89.9165 11.0972 94.6041 14.9325 94.7611 20.5172H89.8716C89.58 17.2875 86.911 15.3362 83.0084 15.3362C79.1059 15.3362 76.4368 17.3099 76.4368 20.1808C76.4368 22.4685 78.1414 23.8142 82.3132 24.8459L85.8793 25.7206C92.5182 27.2906 95.2769 29.9597 95.2769 34.6921C95.2769 40.7478 90.4548 44.5383 82.7842 44.5383C75.607 44.5383 70.7624 40.8376 70.4484 34.9837ZM99.3814 44V11.6354H104.181V24.3525H104.293C105.594 21.5938 108.173 20.0013 111.762 20.0013C116.943 20.0013 120.038 23.4553 120.038 28.7934V44H115.171V29.7354C115.171 26.2589 113.422 24.1731 110.013 24.1731C106.424 24.1731 104.226 26.6402 104.226 30.3634V44H99.3814ZM134.864 44.4486C128.112 44.4486 123.672 39.8058 123.672 32.2025C123.672 24.6216 128.135 19.9789 134.864 19.9789C141.592 19.9789 146.055 24.6216 146.055 32.2025C146.055 39.8058 141.615 44.4486 134.864 44.4486ZM134.864 40.4563C138.676 40.4563 141.121 37.4508 141.121 32.2025C141.121 26.9766 138.654 23.9712 134.864 23.9712C131.073 23.9712 128.606 26.9766 128.606 32.2025C128.606 37.4508 131.073 40.4563 134.864 40.4563ZM162.092 20.0238C168.08 20.0238 172.028 24.7338 172.028 32.2025C172.028 39.6713 168.103 44.4037 162.182 44.4037C158.795 44.4037 156.103 42.744 154.758 40.1198H154.646V51.8052H149.801V20.405H154.489V24.4646H154.578C155.969 21.7508 158.683 20.0238 162.092 20.0238ZM160.813 40.2993C164.649 40.2993 167.049 37.1593 167.049 32.2025C167.049 27.2682 164.649 24.1058 160.813 24.1058C157.113 24.1058 154.623 27.3355 154.623 32.2025C154.623 37.1144 157.09 40.2993 160.813 40.2993Z" fill="white"/>
<path d="M196.901 39.6488V44H176.357V11.6354H196.901V15.9642H181.381V25.4291H196.071V29.6008H181.381V39.6488H196.901ZM209.73 40.5684C213.117 40.5684 215.764 38.2358 215.764 35.1631V33.3015L209.955 33.6604C207.061 33.8622 205.424 35.1407 205.424 37.1593C205.424 39.2227 207.129 40.5684 209.73 40.5684ZM208.385 44.4037C203.764 44.4037 200.535 41.5328 200.535 37.2938C200.535 33.167 203.697 30.6325 209.304 30.3185L215.764 29.9372V28.1205C215.764 25.4964 213.992 23.9263 211.031 23.9263C208.228 23.9263 206.478 25.2721 206.052 27.3804H201.477C201.746 23.1189 205.379 19.9789 211.211 19.9789C216.93 19.9789 220.586 23.0068 220.586 27.7392V44H215.943V40.1198H215.831C214.463 42.744 211.48 44.4037 208.385 44.4037ZM224.87 27.0888C224.87 22.8722 228.593 19.9789 234.11 19.9789C239.359 19.9789 243.037 22.9171 243.194 27.1112H238.641C238.417 24.9805 236.69 23.6572 233.976 23.6572C231.352 23.6572 229.602 24.9356 229.602 26.7972C229.602 28.2551 230.768 29.2419 233.213 29.8475L237.183 30.7671C241.938 31.911 243.732 33.7052 243.732 37.1817C243.732 41.488 239.718 44.4486 233.931 44.4486C228.346 44.4486 224.645 41.5553 224.264 37.2265H229.064C229.445 39.4918 231.195 40.7478 234.155 40.7478C237.071 40.7478 238.865 39.5367 238.865 37.6303C238.865 36.1275 237.968 35.2977 235.501 34.6697L231.284 33.638C227.023 32.6062 224.87 30.3858 224.87 27.0888ZM257.369 23.8815C253.982 23.8815 251.605 26.4608 251.358 30.0269H263.155C263.043 26.4159 260.756 23.8815 257.369 23.8815ZM263.133 37.0695H267.731C267.058 41.3758 262.976 44.4486 257.571 44.4486C250.64 44.4486 246.446 39.761 246.446 32.3147C246.446 24.9132 250.708 19.9789 257.369 19.9789C263.918 19.9789 268 24.5992 268 31.754V33.4137H251.336V33.7052C251.336 37.8097 253.803 40.5236 257.683 40.5236C260.442 40.5236 262.483 39.133 263.133 37.0695Z" fill="#E27A1E"/>
</svg>
