<svg width="188" height="38" viewBox="0 0 188 38" fill="none" xmlns="http://www.w3.org/2000/svg">
<path d="M35.8088 18.9632H20L22.0588 15.3603C25.7353 8.96323 32.5735 4.99263 40 4.99263V2.34558L21.9118 2.34558C16.0294 2.34558 10.5882 5.72793 8.0147 11.0956L4.19116 19.0368H20L17.9412 22.6397C14.2647 29.0368 7.42647 33.0073 0 33.0073V35.6544H18.0882C23.9706 35.6544 29.4118 32.2721 31.9853 26.9044L35.8088 18.9632Z" fill="#E27A1E"/>
<path d="M49.0781 23.7188H52.5312C52.7812 25.9531 54.9531 27.4219 57.9219 27.4219C60.7656 27.4219 62.8125 25.9531 62.8125 23.9375C62.8125 22.1875 61.5781 21.1406 58.6562 20.4219L55.7344 19.7188C51.5938 18.7188 49.6719 16.7812 49.6719 13.6406C49.6719 9.75 53.0625 7.07812 57.875 7.07812C62.6406 7.07812 65.9062 9.75 66.0156 13.6406H62.6094C62.4062 11.3906 60.5469 10.0312 57.8281 10.0312C55.1094 10.0312 53.25 11.4062 53.25 13.4062C53.25 15 54.4375 15.9375 57.3438 16.6562L59.8281 17.2656C64.4531 18.3594 66.375 20.2188 66.375 23.5156C66.375 27.7344 63.0156 30.375 57.6719 30.375C52.6719 30.375 49.2969 27.7969 49.0781 23.7188ZM69.2344 30V7.45312H72.5781V16.3125H72.6562C73.5625 14.3906 75.3594 13.2812 77.8594 13.2812C81.4688 13.2812 83.625 15.6875 83.625 19.4062V30H80.2344V20.0625C80.2344 17.6406 79.0156 16.1875 76.6406 16.1875C74.1406 16.1875 72.6094 17.9062 72.6094 20.5V30H69.2344ZM93.9531 30.3125C89.25 30.3125 86.1562 27.0781 86.1562 21.7812C86.1562 16.5 89.2656 13.2656 93.9531 13.2656C98.6406 13.2656 101.75 16.5 101.75 21.7812C101.75 27.0781 98.6562 30.3125 93.9531 30.3125ZM93.9531 27.5312C96.6094 27.5312 98.3125 25.4375 98.3125 21.7812C98.3125 18.1406 96.5938 16.0469 93.9531 16.0469C91.3125 16.0469 89.5938 18.1406 89.5938 21.7812C89.5938 25.4375 91.3125 27.5312 93.9531 27.5312ZM112.922 13.2969C117.094 13.2969 119.844 16.5781 119.844 21.7812C119.844 26.9844 117.109 30.2812 112.984 30.2812C110.625 30.2812 108.75 29.125 107.812 27.2969H107.734V35.4375H104.359V13.5625H107.625V16.3906H107.688C108.656 14.5 110.547 13.2969 112.922 13.2969ZM112.031 27.4219C114.703 27.4219 116.375 25.2344 116.375 21.7812C116.375 18.3438 114.703 16.1406 112.031 16.1406C109.453 16.1406 107.719 18.3906 107.719 21.7812C107.719 25.2031 109.438 27.4219 112.031 27.4219Z" fill="#121212"/>
<path d="M137.172 26.9688V30H122.859V7.45312H137.172V10.4688H126.359V17.0625H136.594V19.9688H126.359V26.9688H137.172ZM146.109 27.6094C148.469 27.6094 150.312 25.9844 150.312 23.8438V22.5469L146.266 22.7969C144.25 22.9375 143.109 23.8281 143.109 25.2344C143.109 26.6719 144.297 27.6094 146.109 27.6094ZM145.172 30.2812C141.953 30.2812 139.703 28.2812 139.703 25.3281C139.703 22.4531 141.906 20.6875 145.812 20.4688L150.312 20.2031V18.9375C150.312 17.1094 149.078 16.0156 147.016 16.0156C145.062 16.0156 143.844 16.9531 143.547 18.4219H140.359C140.547 15.4531 143.078 13.2656 147.141 13.2656C151.125 13.2656 153.672 15.375 153.672 18.6719V30H150.438V27.2969H150.359C149.406 29.125 147.328 30.2812 145.172 30.2812ZM156.656 18.2188C156.656 15.2812 159.25 13.2656 163.094 13.2656C166.75 13.2656 169.312 15.3125 169.422 18.2344H166.25C166.094 16.75 164.891 15.8281 163 15.8281C161.172 15.8281 159.953 16.7188 159.953 18.0156C159.953 19.0312 160.766 19.7188 162.469 20.1406L165.234 20.7812C168.547 21.5781 169.797 22.8281 169.797 25.25C169.797 28.25 167 30.3125 162.969 30.3125C159.078 30.3125 156.5 28.2969 156.234 25.2812H159.578C159.844 26.8594 161.062 27.7344 163.125 27.7344C165.156 27.7344 166.406 26.8906 166.406 25.5625C166.406 24.5156 165.781 23.9375 164.062 23.5L161.125 22.7812C158.156 22.0625 156.656 20.5156 156.656 18.2188ZM179.297 15.9844C176.938 15.9844 175.281 17.7812 175.109 20.2656H183.328C183.25 17.75 181.656 15.9844 179.297 15.9844ZM183.312 25.1719H186.516C186.047 28.1719 183.203 30.3125 179.438 30.3125C174.609 30.3125 171.688 27.0469 171.688 21.8594C171.688 16.7031 174.656 13.2656 179.297 13.2656C183.859 13.2656 186.703 16.4844 186.703 21.4688V22.625H175.094V22.8281C175.094 25.6875 176.812 27.5781 179.516 27.5781C181.438 27.5781 182.859 26.6094 183.312 25.1719Z" fill="#E27A1E"/>
</svg>
